{
  "accessors": [
    {
      "bufferView": 2,
      "componentType": 5126,
      "count": 2251,
      "max": [
        27.127891540527344,
        24.371013641357422,
        149.73841857910156
      ],
      "min": [
        -92.01005554199219,
        -0.4224720001220703,
        78.61410522460938
      ],
      "type": "VEC3"
    },
    {
      "bufferView": 2,
      "byteOffset": 27012,
      "componentType": 5126,
      "count": 2251,
      "max": [
        1.0,
        1.0,
        1.0
      ],
      "min": [
        -1.0,
        -0.9999951720237732,
        -1.0
      ],
      "type": "VEC3"
    },
    {
      "bufferView": 3,
      "componentType": 5126,
      "count": 2251,
      "max": [
        1.0,
        1.0,
        1.0,
        1.0
      ],
      "min": [
        -0.9989727139472961,
        -1.0,
        -1.0,
        -1.0
      ],
      "type": "VEC4"
    },
    {
      "bufferView": 1,
      "componentType": 5126,
      "count": 2251,
      "max": [
        0.9883830547332764,
        0.9762914180755615
      ],
      "min": [
        0.007286280393600464,
        0.032060712575912476
      ],
      "type": "VEC2"
    },
    {
      "bufferView": 1,
      "byteOffset": 18008,
      "componentType": 5126,
      "count": 2251,
      "max": [
        0.945586085319519,
        0.94632488489151
      ],
      "min": [
        0.05389279127120972,
        0.05457925796508789
      ],
      "type": "VEC2"
    },
    {
      "bufferView": 0,
      "componentType": 5125,
      "count": 7908,
      "type": "SCALAR"
    }
  ],
  "asset": {
    "extras": {
      "author": "TheoClarke (https://sketchfab.com/TheoClarke)",
      "license": "CC-BY-4.0 (http://creativecommons.org/licenses/by/4.0/)",
      "source": "https://sketchfab.com/3d-models/spell-book-a9e831fea546419e80f469f8ece8ee8a",
      "title": "Spell Book 🪄📖"
    },
    "generator": "Sketchfab-16.12.0",
    "version": "2.0"
  },
  "bufferViews": [
    {
      "buffer": 0,
      "byteLength": 31632,
      "name": "floatBufferViews",
      "target": 34963
    },
    {
      "buffer": 0,
      "byteLength": 36016,
      "byteOffset": 31632,
      "byteStride": 8,
      "name": "floatBufferViews",
      "target": 34962
    },
    {
      "buffer": 0,
      "byteLength": 54024,
      "byteOffset": 67648,
      "byteStride": 12,
      "name": "floatBufferViews",
      "target": 34962
    },
    {
      "buffer": 0,
      "byteLength": 36016,
      "byteOffset": 121672,
      "byteStride": 16,
      "name": "floatBufferViews",
      "target": 34962
    }
  ],
  "buffers": [
    {
      "byteLength": 157688,
      "uri": "cene.bin"
    }
  ],
  "images": [
    {
      "uri": "textures/PotionBookMat_baseColor.png"
    },
    {
      "uri": "textures/PotionBookMat_metallicRoughness.png"
    },
    {
      "uri": "textures/PotionBookMat_normal.png"
    }
  ],
  "materials": [
    {
      "doubleSided": true,
      "name": "PotionBookMat",
      "normalTexture": {
        "index": 2
      },
      "pbrMetallicRoughness": {
        "baseColorTexture": {
          "index": 0
        },
        "metallicRoughnessTexture": {
          "index": 1
        }
      }
    }
  ],
  "meshes": [
    {
      "name": "PotionBook_PotionBookMat_0",
      "primitives": [
        {
          "attributes": {
            "NORMAL": 1,
            "POSITION": 0,
            "TANGENT": 2,
            "TEXCOORD_0": 3,
            "TEXCOORD_1": 4
          },
          "indices": 5,
          "material": 0,
          "mode": 4
        }
      ]
    }
  ],
  "nodes": [
    {
      "children": [
        1
      ],
      "matrix": [
        1.0,
        0.0,
        0.0,
        0.0,
        0.0,
        0.3291950523853304,
        -0.9442619681358336,
        0.0,
        0.0,
        0.9442619681358336,
        0.3291950523853304,
        0.0,
        0.0,
        0.0,
        0.0,
        1.0
      ],
      "name": "Sketchfab_model"
    },
    {
      "children": [
        2
      ],
      "matrix": [
        0.009999999776482582,
        0.0,
        0.0,
        0.0,
        0.0,
        0.0,
        0.009999999776482582,
        0.0,
        0.0,
        -0.009999999776482582,
        0.0,
        0.0,
        0.0,
        0.0,
        0.0,
        1.0
      ],
      "name": "a883084bb5864d13b28047c6077e6113.fbx"
    },
    {
      "children": [
        3
      ],
      "name": "RootNode"
    },
    {
      "children": [
        4
      ],
      "matrix": [
        0.7468498945236206,
        0.0,
        0.0,
        0.0,
        0.0,
        0.4853700745530568,
        0.5676272154136932,
        0.0,
        0.0,
        -0.5676272154136932,
        0.4853700745530568,
        0.0,
        24.3250789642334,
        85.18449401855469,
        -65.08238220214844,
        1.0
      ],
      "name": "PotionBook"
    },
    {
      "mesh": 0,
      "name": "PotionBook_PotionBookMat_0"
    }
  ],
  "samplers": [
    {
      "magFilter": 9729,
      "minFilter": 9987,
      "wrapS": 10497,
      "wrapT": 10497
    }
  ],
  "scene": 0,
  "scenes": [
    {
      "name": "Sketchfab_Scene",
      "nodes": [
        0
      ]
    }
  ],
  "textures": [
    {
      "sampler": 0,
      "source": 0
    },
    {
      "sampler": 0,
      "source": 1
    },
    {
      "sampler": 0,
      "source": 2
    }
  ]
}
